# xmcd
# 
# Track frame offsets:
#     150
#     13145
#     28475
#     39662
#     52865
#     72510
#     85977
#     101855
#     112135
#     126512
#     140525
#     155332
#     167240
#     182000
#     195182
#     212347
#     228720
#     246255
#     263887
#     275255
# 
# Disc length: 3784
# 
# Revision: 3
# Processed by: cddbd v1.5.2PL0 Copyright (c) Steve Scherf et al.
# Submitted via: BonkEnc v1.0.8
# 
DISCID=2a0ec614
DTITLE=Tennessee Ernie Ford - Precious Memories
DYEAR=1975
DGENRE=Gospel
TTITLE0=Precious Memories
TTITLE1=Come On Down
TTITLE2=Whispering Hope
TTITLE3=Lord,I´m Coming Home
TTITLE4=Did You Think To Pray?
TTITLE5=I Need Thee Every Hour
TTITLE6=Sweet Peace The Gift Of God´s Love
TTITLE7=Oh How I Love Jesus
TTITLE8=Softly And Tenderly
TTITLE9=The Ninety And Nine
TTITLE10=Were You There?
TTITLE11=How Great Thou Art
TTITLE12=His Eye Is On The Sparrow
TTITLE13=Sweet Hour Of Prayer
TTITLE14=When They Ring The Golden Bells
TTITLE15=My Jesus,I Love Thee
TTITLE16=What A Friend We Have In Jesus
TTITLE17=It Is Well With My Soul
TTITLE18=Hold To God´s Unchanging Hand
TTITLE19=All Hail The Power
EXTD=
EXTT0=
EXTT1=
EXTT2=
EXTT3=
EXTT4=
EXTT5=
EXTT6=
EXTT7=
EXTT8=
EXTT9=
EXTT10=
EXTT11=
EXTT12=
EXTT13=
EXTT14=
EXTT15=
EXTT16=
EXTT17=
EXTT18=
EXTT19=
PLAYORDER=
